<svg width="78" height="91" viewBox="0 0 78 91" fill="none" xmlns="http://www.w3.org/2000/svg">
<g clip-path="url(#clip0_360_136)">
<mask id="mask0_360_136" style="mask-type:luminance" maskUnits="userSpaceOnUse" x="0" y="0" width="78" height="91">
<path d="M78 0H0V90.4457H78V0Z" fill="white"/>
</mask>
<g mask="url(#mask0_360_136)">
<path d="M47.1472 27.4726C47.2725 27.3498 47.3721 27.2033 47.4401 27.0415C47.508 26.8797 47.5431 26.706 47.5431 26.5305C47.5431 26.355 47.508 26.1813 47.4401 26.0195C47.3721 25.8577 47.2725 25.7112 47.1472 25.5884C47.0242 25.4633 46.8776 25.364 46.7158 25.2962C46.554 25.2284 46.3804 25.1935 46.205 25.1935C46.0296 25.1935 45.856 25.2284 45.6942 25.2962C45.5325 25.364 45.3859 25.4633 45.2629 25.5884L40.1918 30.6336C39.871 30.9525 39.437 31.1314 38.9847 31.1314C38.5323 31.1314 38.0984 30.9525 37.7776 30.6336L23.1743 16.1128C22.0297 14.9834 21.2557 13.5324 20.9553 11.9527C20.6549 10.3729 20.8423 8.73912 21.4926 7.26841C22.2534 5.50673 23.6467 4.09417 25.3978 3.30933C27.1489 2.52448 29.1305 2.42435 30.9517 3.02877L37.6127 5.2169C38.496 5.50889 39.4498 5.50889 40.3331 5.2169L46.9941 3.03112C48.8153 2.42615 50.7971 2.52597 52.5484 3.31088C54.2996 4.09579 55.6929 5.50873 56.4532 7.27077C57.1033 8.74113 57.2906 10.3745 56.9902 11.9539C56.6898 13.5332 55.9159 14.9837 54.7715 16.1128L49.7051 21.1556C49.5806 21.2789 49.4818 21.4256 49.4143 21.5874C49.3469 21.7491 49.3122 21.9226 49.3122 22.0978C49.3122 22.273 49.3469 22.4464 49.4143 22.6081C49.4818 22.7698 49.5806 22.9166 49.7051 23.0399C49.8279 23.1632 49.9738 23.261 50.1344 23.3277C50.2951 23.3945 50.4674 23.4288 50.6413 23.4288C50.8153 23.4288 50.9876 23.3945 51.1483 23.3277C51.3089 23.261 51.4548 23.1632 51.5776 23.0399L56.6463 17.9971C58.1696 16.4926 59.1996 14.5606 59.5996 12.4574C59.9996 10.3541 59.7509 8.17892 58.8863 6.22029C57.863 3.85205 55.989 1.95353 53.6343 0.89957C51.2795 -0.154392 48.6152 -0.287174 46.1673 0.527405L39.504 2.71319C39.1577 2.82866 38.7833 2.82866 38.4371 2.71319L31.7737 0.527405C29.3259 -0.287174 26.6616 -0.154392 24.3068 0.89957C21.9521 1.95353 20.0781 3.85205 19.0548 6.22029C18.1902 8.17892 17.9414 10.3541 18.3415 12.4574C18.7415 14.5606 19.7715 16.4926 21.2948 17.9971L35.898 32.5202C36.7151 33.3333 37.8214 33.789 38.9741 33.7874C40.1276 33.7896 41.2348 33.3338 42.0525 32.5202L47.1472 27.4726Z" fill="white"/>
<path d="M37.1251 79.8534C36.9303 79.5604 36.6272 79.3566 36.2823 79.2869C35.9375 79.2171 35.579 79.287 35.2856 79.4812L32.0305 81.6434L31.9457 78.1905L34.7321 69.8737C35.3099 68.1551 35.5841 66.3491 35.5423 64.5365C35.5423 64.5365 35.3751 43.6421 35.3751 43.628C35.2903 41.0065 33.2035 39.638 31.1779 39.638H31.1637C30.6166 39.6361 30.0732 39.7285 29.5574 39.9112V39.3012C29.5056 37.3203 28.0264 35.3135 25.3013 35.2971C24.2398 35.288 23.2112 35.6646 22.4065 36.357C21.5815 35.6696 20.5409 35.2944 19.467 35.2971C18.7521 35.2843 18.0458 35.4542 17.4148 35.7905C16.7838 36.1268 16.249 36.6185 15.861 37.2191C15.1939 36.8794 14.4589 36.6943 13.7106 36.6773C10.9831 36.6773 9.50151 38.6935 9.44969 40.6814V54.3754C9.45032 54.7267 9.59032 55.0634 9.83894 55.3116C10.0876 55.5598 10.4245 55.6992 10.7758 55.6992C11.1268 55.6992 11.4635 55.5597 11.7118 55.3115C11.96 55.0633 12.0995 54.7265 12.0995 54.3754V40.7356C12.1466 39.3789 13.5574 39.3365 13.7176 39.3342C14.0733 39.3342 15.218 39.4331 15.2698 40.7474V57.2349C15.2698 57.409 15.3041 57.5815 15.3707 57.7424C15.4374 57.9032 15.535 58.0494 15.6582 58.1725C15.7813 58.2957 15.9275 58.3934 16.0884 58.46C16.2493 58.5266 16.4217 58.5609 16.5959 58.5609C16.9472 58.5603 17.2838 58.4204 17.532 58.1717C17.7802 57.9231 17.9196 57.5862 17.9196 57.2349V39.3577C17.9737 38.0575 19.0972 37.9445 19.467 37.9445C19.6036 37.9445 20.9533 37.9822 21.0875 39.3436V57.2089C21.0875 57.5606 21.2272 57.8979 21.4759 58.1466C21.7246 58.3953 22.0619 58.535 22.4136 58.535C22.7649 58.5344 23.1015 58.3944 23.3497 58.1458C23.5979 57.8972 23.7373 57.5602 23.7373 57.2089V39.3577C23.7915 38.0505 24.9362 37.9445 25.2918 37.9445C25.452 37.9445 26.8628 37.9893 26.9076 39.3436V57.2089C26.9076 57.3831 26.9419 57.5555 27.0085 57.7164C27.0752 57.8773 27.1729 58.0235 27.296 58.1466C27.4191 58.2697 27.5653 58.3674 27.7262 58.4341C27.8871 58.5007 28.0595 58.535 28.2337 58.535C28.4077 58.535 28.58 58.5007 28.7408 58.4341C28.9015 58.3674 29.0476 58.2697 29.1705 58.1465C29.2935 58.0233 29.3909 57.8771 29.4573 57.7162C29.5237 57.5554 29.5577 57.383 29.5574 57.2089V43.6798C29.6045 42.3231 31.013 42.2807 31.1731 42.2807C31.3682 42.27 31.5635 42.2981 31.7476 42.3636C31.9317 42.4291 32.1009 42.5305 32.2454 42.662C32.3899 42.7936 32.5067 42.9526 32.5891 43.1297C32.6715 43.3069 32.7178 43.4987 32.7253 43.6939L32.8926 64.5954C32.9274 66.1015 32.7003 67.6021 32.2213 69.0305L29.3595 77.5686C29.3099 77.7149 29.2868 77.8689 29.2912 78.0233L29.409 82.7481H9.31545L9.15999 74.8694C9.15735 74.2099 8.98803 73.5617 8.66773 72.9851C7.5984 71.0514 4.01118 64.4564 2.74636 60.676C2.6662 60.4382 2.63573 60.1865 2.65685 59.9365C2.80524 58.1558 3.2245 53.0918 3.25276 52.7456C3.27783 52.5355 3.3521 52.3343 3.46955 52.1583C3.58701 51.9823 3.74435 51.8365 3.92875 51.7327C4.11434 51.6261 4.32262 51.5652 4.53639 51.555C4.75017 51.5448 4.96331 51.5855 5.15824 51.6739C5.38903 51.7788 5.58612 51.9459 5.72753 52.1563C5.86893 52.3668 5.94909 52.6123 5.95907 52.8657L6.04857 58.1605C6.06191 58.9024 6.36148 59.6105 6.88471 60.1367L16.4074 69.6712C16.5307 69.7957 16.6775 69.8944 16.8392 69.9619C17.0009 70.0293 17.1744 70.064 17.3496 70.064C17.5248 70.064 17.6983 70.0293 17.86 69.9619C18.0217 69.8944 18.1684 69.7957 18.2917 69.6712C18.4159 69.5477 18.5145 69.4009 18.5817 69.2392C18.649 69.0775 18.6836 68.9042 18.6836 68.729C18.6836 68.5539 18.649 68.3805 18.5817 68.2188C18.5145 68.0571 18.4159 67.9104 18.2917 67.7869L8.77371 58.2571C8.7338 58.2158 8.71033 58.1614 8.70775 58.104L8.61827 52.795C8.59601 52.0428 8.36356 51.3119 7.94729 50.685C7.53102 50.0581 6.94755 49.5602 6.26292 49.2478C5.68813 48.9851 5.05889 48.8634 4.42757 48.8929C3.79625 48.9224 3.18109 49.1022 2.6333 49.4175C2.08265 49.7275 1.61392 50.1645 1.26612 50.6922C0.918322 51.2198 0.701491 51.8228 0.633609 52.4511C0.633609 52.4511 0.633598 52.5006 0.0329817 59.708C-0.0179597 60.3156 0.0557898 60.9271 0.249685 61.5051C1.58517 65.5092 5.26895 72.2738 6.37361 74.2571C6.47815 74.4477 6.5332 74.6614 6.53376 74.8788V74.9048L6.81406 89.1405C6.82084 89.4873 6.96322 89.8176 7.21067 90.0607C7.45811 90.3037 7.79093 90.4401 8.13777 90.4407H30.9164C31.0921 90.4392 31.2657 90.403 31.4274 90.3343C31.5891 90.2656 31.7356 90.1657 31.8586 90.0403C31.9815 89.9134 32.0779 89.7632 32.1422 89.5986C32.2065 89.434 32.2374 89.2583 32.2331 89.0817L32.1718 86.5802L35.3021 88.6577C35.5988 88.838 35.9525 88.9001 36.2929 88.8316C36.6333 88.7631 36.9354 88.5689 37.1393 88.2879C37.2358 88.143 37.3028 87.9806 37.3365 87.8098C37.3702 87.639 37.3698 87.4632 37.3355 87.2926C37.3011 87.1219 37.2334 86.9598 37.1363 86.8153C37.0392 86.6709 36.9145 86.547 36.7695 86.4507L33.1799 84.0694L36.7695 81.6859C37.0623 81.4915 37.266 81.1888 37.3358 80.8443C37.4056 80.4998 37.3358 80.1417 37.1416 79.8487L37.1251 79.8534ZM9.41436 87.7956L9.36726 85.3979H29.4749L29.5338 87.7956H9.41436Z" fill="white"/>
<path d="M77.4088 75.7502L73.8192 73.369L77.4088 70.9854C77.7016 70.791 77.9053 70.4883 77.9751 70.1438C78.0449 69.7993 77.9751 69.4412 77.7809 69.1482C77.5866 68.8553 77.2839 68.6517 76.9394 68.5819C76.5949 68.5121 76.2368 68.5819 75.9438 68.7761L71.0234 72.0429H49.9995V64.0912C49.9985 63.424 49.8292 62.7678 49.5072 62.1834C48.4355 60.252 44.8483 53.6547 43.5859 49.8767C43.5063 49.6387 43.4751 49.3873 43.494 49.1371C43.6165 47.6626 44.0546 42.3725 44.0899 41.9438C44.1153 41.7341 44.1898 41.5334 44.3072 41.3578C44.4247 41.1823 44.5818 41.0369 44.7659 40.9334C44.9513 40.8262 45.1596 40.765 45.3735 40.7547C45.5874 40.7445 45.8006 40.7856 45.9954 40.8745C46.2244 40.978 46.4204 41.1427 46.5618 41.3505C46.7031 41.5583 46.7842 41.8012 46.7962 42.0522L46.8857 47.3494C46.8988 48.0902 47.1975 48.7973 47.7195 49.3231L49.7216 51.3393C50.3811 51.8552 51.547 51.9329 51.9568 50.7034L52.8989 46.7205C52.9224 46.6201 52.9343 46.5174 52.9343 46.4143V29.9268C52.9814 28.5701 54.3923 28.5277 54.5524 28.5253C54.7474 28.5152 54.9424 28.5438 55.1262 28.6095C55.31 28.6752 55.479 28.7768 55.6233 28.9082C55.7676 29.0396 55.8845 29.1983 55.9671 29.3752C56.0497 29.5521 56.0964 29.7435 56.1046 29.9386V46.426C56.1046 46.7773 56.244 47.1143 56.4921 47.3629C56.7403 47.6115 57.077 47.7515 57.4283 47.7521C57.78 47.7521 58.1173 47.6125 58.366 47.3638C58.6147 47.1151 58.7544 46.7777 58.7544 46.426V28.5654C58.8085 27.2653 59.9438 27.1522 60.3018 27.1522C60.4361 27.1522 61.7881 27.1899 61.9223 28.5513V46.4167C61.9223 46.7684 62.062 47.1056 62.3107 47.3543C62.5594 47.603 62.8967 47.7427 63.2484 47.7427C63.4224 47.7427 63.5947 47.7084 63.7555 47.6417C63.9163 47.5751 64.0623 47.4773 64.1852 47.3542C64.3082 47.231 64.4056 47.0848 64.472 46.9239C64.5384 46.763 64.5724 46.5907 64.5721 46.4167V28.556C64.6263 27.2488 65.771 27.1546 66.1266 27.1428C66.2868 27.1428 67.6977 27.1852 67.7424 28.5418V46.4072C67.7424 46.7589 67.8821 47.0962 68.1308 47.3449C68.3795 47.5936 68.7168 47.7333 69.0685 47.7333C69.4198 47.7327 69.7565 47.5927 70.0046 47.344C70.2528 47.0954 70.3922 46.7585 70.3922 46.4072V32.904C70.4369 31.5473 71.8478 31.5049 72.008 31.5025C72.2029 31.4924 72.3979 31.521 72.5817 31.5867C72.7656 31.6524 72.9345 31.7539 73.0789 31.8853C73.2232 32.0168 73.34 32.1755 73.4227 32.3523C73.5053 32.5292 73.552 32.7207 73.5602 32.9158L73.7274 53.8172C73.7613 55.3234 73.5333 56.8241 73.0537 58.2523L70.1967 66.7764C70.1412 66.9412 70.1188 67.1154 70.1307 67.2889C70.1426 67.4624 70.1886 67.6319 70.266 67.7876C70.3435 67.9434 70.4509 68.0824 70.582 68.1966C70.7132 68.3108 70.8656 68.398 71.0305 68.4534C71.1663 68.4995 71.3087 68.5233 71.4521 68.524C71.7297 68.5236 72.0002 68.4361 72.2254 68.2739C72.4506 68.1116 72.6192 67.8827 72.7075 67.6195L75.5693 59.0814C76.1469 57.3628 76.421 55.5568 76.3795 53.7442C76.3795 53.7442 76.2123 32.8498 76.2123 32.8357C76.1534 30.3225 74.0218 28.8316 72.0032 28.8457C71.4554 28.8429 70.9112 28.9345 70.3945 29.1165V28.5065C70.3639 26.6034 68.8377 24.526 66.1243 24.5024C65.0679 24.4955 64.0447 24.8712 63.2437 25.56C62.4173 24.8749 61.3776 24.5 60.3042 24.5001C59.5923 24.4881 58.889 24.6568 58.26 24.9905C57.631 25.3241 57.0969 25.8118 56.7076 26.4079C56.0377 26.0664 55.2972 25.8866 54.5453 25.8826C52.482 25.8826 50.3575 27.2629 50.2892 29.8867C50.2881 29.8985 50.2881 29.9104 50.2892 29.9221V46.2706L49.9288 47.7945C49.7854 47.6488 49.6546 47.4912 49.5379 47.3235L49.4483 42.0145C49.4258 41.2623 49.1933 40.5315 48.777 39.9047C48.3608 39.2778 47.7775 38.78 47.093 38.4673C46.518 38.2049 45.8887 38.0836 45.2574 38.1135C44.626 38.1434 44.011 38.3237 43.4634 38.6393C42.9132 38.9493 42.4447 39.3859 42.097 39.9131C41.7492 40.4403 41.5321 41.0428 41.4637 41.6706C41.4625 41.6847 41.4625 41.6989 41.4637 41.713C41.4637 41.7672 41.0185 47.0903 40.8654 48.9275C40.8153 49.536 40.8899 50.1482 41.0845 50.7269C42.42 54.7193 46.1038 61.4957 47.2084 63.4765C47.3148 63.6673 47.3708 63.8822 47.3709 64.1007V89.1287C47.3706 89.3026 47.4046 89.4749 47.4711 89.6356C47.5375 89.7964 47.635 89.9424 47.7579 90.0654C47.8809 90.1883 48.027 90.2858 48.1877 90.3522C48.3484 90.4187 48.5207 90.4527 48.6946 90.4524H71.4733C71.6473 90.4527 71.8197 90.4187 71.9806 90.3523C72.1414 90.2859 72.2877 90.1885 72.4108 90.0655C72.534 89.9426 72.6317 89.7966 72.6984 89.6358C72.7651 89.4751 72.7994 89.3027 72.7994 89.1287V75.8657L75.965 77.9667C76.2618 78.1464 76.6154 78.2082 76.9556 78.1397C77.2958 78.0712 77.5979 77.8775 77.8021 77.5969C77.9963 77.3038 78.0661 76.9457 77.9963 76.6012C77.9265 76.2567 77.7228 75.9541 77.43 75.7597L77.4088 75.7502ZM49.9995 87.7956V74.6927H70.126V87.7956H49.9995Z" fill="white"/>
<path d="M13.2182 24.8066C12.8672 24.8066 12.5305 24.9461 12.2823 25.1943C12.034 25.4426 11.8945 25.7793 11.8945 26.1303C11.8942 26.3044 11.9282 26.4768 11.9946 26.6376C12.061 26.7985 12.1585 26.9447 12.2814 27.0679C12.4044 27.191 12.5504 27.2887 12.7111 27.3554C12.8719 27.4221 13.0442 27.4564 13.2182 27.4564H14.337V28.5752C14.337 28.7492 14.3714 28.9215 14.438 29.0823C14.5047 29.243 14.6024 29.3891 14.7256 29.512C14.8488 29.635 14.995 29.7325 15.1558 29.7988C15.3167 29.8652 15.4891 29.8992 15.6631 29.8989C16.0142 29.8989 16.3509 29.7595 16.5991 29.5112C16.8474 29.263 16.9868 28.9263 16.9868 28.5752V27.4564H18.1056C18.2797 27.4564 18.4522 27.4221 18.6131 27.3554C18.774 27.2888 18.9202 27.1911 19.0433 27.068C19.1664 26.9448 19.2641 26.7987 19.3307 26.6378C19.3974 26.4769 19.4317 26.3045 19.4317 26.1303C19.4311 25.779 19.2911 25.4423 19.0425 25.1942C18.7938 24.946 18.4569 24.8066 18.1056 24.8066H16.9868V23.6879C16.9868 23.3366 16.8474 22.9996 16.5993 22.751C16.3511 22.5024 16.0144 22.3624 15.6631 22.3618C15.489 22.3618 15.3165 22.396 15.1557 22.4627C14.9948 22.5293 14.8486 22.627 14.7254 22.7501C14.6023 22.8733 14.5046 23.0195 14.438 23.1804C14.3713 23.3413 14.337 23.5137 14.337 23.6879V24.8066H13.2182Z" fill="white"/>
<path d="M13.3785 14.6242C13.4064 14.7943 13.4004 14.9683 13.3609 15.1362C13.3213 15.304 13.2491 15.4624 13.1482 15.6022C13.0473 15.7421 12.9198 15.8606 12.773 15.9511C12.6262 16.0415 12.4629 16.1021 12.2926 16.1293C12.1226 16.1572 11.9488 16.1513 11.7811 16.1119C11.6134 16.0725 11.4551 16.0005 11.3153 15.8998C11.1755 15.7992 11.0569 15.6719 10.9663 15.5254C10.8758 15.3788 10.815 15.2158 10.7876 15.0458C10.7318 14.7019 10.8149 14.35 11.0185 14.0673C11.2221 13.7847 11.5296 13.5944 11.8734 13.5384C12.0435 13.5108 12.2174 13.517 12.3851 13.5567C12.5529 13.5963 12.7111 13.6686 12.8509 13.7694C12.9907 13.8703 13.1092 13.9977 13.1997 14.1443C13.2902 14.291 13.351 14.454 13.3785 14.6242Z" fill="white"/>
<path d="M26.6344 29.0863C26.6347 29.2588 26.601 29.4296 26.5352 29.5891C26.4694 29.7485 26.3728 29.8934 26.2509 30.0155C26.1291 30.1376 25.9844 30.2344 25.825 30.3005C25.6657 30.3666 25.4949 30.4006 25.3224 30.4006C25.1499 30.4006 24.9792 30.3666 24.8198 30.3005C24.6605 30.2344 24.5158 30.1376 24.3939 30.0155C24.2721 29.8934 24.1755 29.7485 24.1097 29.5891C24.0439 29.4296 24.0102 29.2588 24.0105 29.0863C24.0105 28.7384 24.1487 28.4046 24.3947 28.1586C24.6408 27.9126 24.9745 27.7744 25.3224 27.7744C25.6704 27.7744 26.0041 27.9126 26.2501 28.1586C26.4961 28.4046 26.6344 28.7384 26.6344 29.0863Z" fill="white"/>
<path d="M63.2508 15.5383C63.4232 15.5383 63.594 15.5043 63.7534 15.4382C63.9127 15.3721 64.0574 15.2753 64.1793 15.1532C64.3011 15.0311 64.3977 14.8863 64.4635 14.7268C64.5293 14.5674 64.563 14.3965 64.5627 14.224C64.5627 14.0517 64.5288 13.8811 64.4628 13.7219C64.3969 13.5628 64.3003 13.4182 64.1784 13.2964C64.0566 13.1745 63.912 13.0779 63.7528 13.0119C63.5936 12.946 63.423 12.9121 63.2508 12.9121C63.0783 12.9118 62.9074 12.9455 62.748 13.0112C62.5885 13.077 62.4436 13.1736 62.3216 13.2955C62.1995 13.4173 62.1026 13.5621 62.0365 13.7214C61.9705 13.8807 61.9365 14.0515 61.9365 14.224C61.9365 14.5726 62.0749 14.9069 62.3214 15.1534C62.5679 15.3999 62.9022 15.5383 63.2508 15.5383Z" fill="white"/>
</g>
</g>
<defs>
<clipPath id="clip0_360_136">
<rect width="78" height="91" fill="white"/>
</clipPath>
</defs>
</svg>
