<svg width="78" height="86" viewBox="0 0 78 86" fill="none" xmlns="http://www.w3.org/2000/svg">
<g clip-path="url(#clip0_360_28)">
<mask id="mask0_360_28" style="mask-type:luminance" maskUnits="userSpaceOnUse" x="0" y="0" width="78" height="86">
<path d="M78 0H0V86H78V0Z" fill="white"/>
</mask>
<g mask="url(#mask0_360_28)">
<path d="M2.50856 80.45C8.00514 84.8087 14.6337 86.2732 17.2806 85.9605C18.8006 85.7793 19.6087 84.8534 20.4416 83.791C22.9551 82.0535 22.7821 82.3018 22.9774 82.0113C23.7664 81.7926 24.4394 81.2734 24.8532 80.5642C26.9688 80.7677 33.0215 80.5071 37.4059 78.8838C47.1584 75.2772 51.5947 64.0726 46.0833 62.6901C47.7837 60.0763 48.6833 56.7328 45.8361 55.4421C46.0823 54.6098 46.0092 53.715 45.6314 52.934C45.2536 52.1531 44.5983 51.5425 43.7947 51.2224C44.5139 49.0505 43.335 47.0797 40.6781 47.1144C40.4656 46.4591 39.8551 45.7889 39.304 45.6251C40.7152 45.5333 40.5966 42.8178 39.4251 41.9018C48.3224 42.1252 55.816 46.2853 56.5574 47.035C57.4348 47.9285 58.3567 48.7576 59.5603 48.3207C62.6323 47.2038 63.1859 39.1615 62.8646 34.7333C61.8365 20.6345 55.9025 7.29034 52.5783 2.58413C49.8597 -1.26821 46.8247 -0.270369 45.715 2.06288C38.0979 10.6388 29.5367 17.2042 20.2588 21.5554C17.9627 22.6227 15.6494 23.628 13.8329 25.3556C10.2789 28.724 8.53158 35.89 11.915 41.0157C14.1987 44.4758 18.415 46.4442 22.5202 46.2953C21.6724 47.313 21.0076 48.6112 20.9409 49.6884C20.6418 54.4691 20.3428 53.9528 19.2652 57.9367C18.5859 60.4518 18.1196 63.02 17.8713 65.6141C17.614 65.4448 17.3239 65.3323 17.0202 65.284C16.7164 65.2357 16.4059 65.2525 16.1091 65.3336C15.393 65.532 14.7821 66.0031 14.4063 66.6467C13.5857 67.0984 7.77036 71.2362 7.00668 71.7823C5.05667 73.1748 3.21787 74.4903 0.375667 76.4115C-0.914447 77.2853 1.38897 79.5614 2.50114 80.4451L2.50856 80.45ZM50.9842 3.73587C54.4443 8.63817 59.9186 21.3022 60.9072 34.8773C61.0901 37.3371 60.8677 45.6772 58.9473 46.4492C56.681 46.1166 52.1631 37.1981 51.2017 35.1056C52.3963 33.6761 53.8035 32.4403 55.3736 31.4419C55.5982 31.5367 55.8392 31.5865 56.0829 31.5884C58.9127 31.5884 58.5791 26.3758 57.9933 23.5982C57.2272 19.9668 55.5021 16.5116 53.3816 16.9535C53.1233 17.0149 52.8803 17.1291 52.6677 17.2887C52.4551 17.4484 52.2775 17.6503 52.1458 17.8818C50.258 18.1135 48.3492 18.1135 46.4614 17.8818C45.9918 13.1657 46.4194 5.54287 47.4698 3.03339C48.1099 1.67564 49.2838 1.29589 51.0015 3.73587H50.9842ZM51.8443 24.9039C52.2595 26.8747 52.9589 28.791 53.8487 30.0643C52.5624 30.9416 51.3822 31.9662 50.3318 33.1174C48.5638 28.8847 47.3396 24.4431 46.6888 19.8998C48.2894 20.0813 49.9044 20.0971 51.5082 19.947C51.3327 21.3891 51.481 23.1738 51.8443 24.9113V24.9039ZM44.7635 6.02443C42.9148 19.5598 46.4713 32.3628 53.2901 43.0734C47.2099 40.3572 40.5094 39.35 33.9038 40.1593C32.93 40.2735 32.5321 41.8398 33.5776 42.2468C34.8133 42.7259 35.9131 44.0539 36.1059 45.2701C36.2492 46.1563 36.0713 46.8141 34.7738 47.6307C33.8939 48.1842 34.3586 49.5196 35.3892 49.5196C35.6182 49.5196 35.84 49.4398 36.0169 49.2937L36.0441 49.2739C36.1479 49.2759 36.2502 49.2989 36.3449 49.3416C36.4396 49.3842 36.5248 49.4456 36.5953 49.5221C36.4643 49.6338 30.3523 54.5088 28.5061 55.6779V55.6481C29.1067 52.8482 29.3266 49.475 27.7646 47.0797C27.4099 45.4306 27.1442 43.7634 26.9688 42.0855C26.9832 41.9096 26.9498 41.733 26.8721 41.5747C26.7945 41.4163 26.6755 41.2821 26.5279 41.1863C26.3802 41.0905 26.2095 41.0367 26.0338 41.0307C25.8582 41.0247 25.6842 41.0667 25.5304 41.1522C25.355 41.249 25.1721 41.321 24.9916 41.4004C20.5652 36.8034 18.8549 29.6945 20.7506 23.5858C20.7506 23.561 20.7506 23.5362 20.7506 23.5114C21.1831 23.2631 32.5099 18.7952 44.7487 6.01696L44.7635 6.02443ZM15.207 26.8003C16.1806 25.9254 17.2743 25.1957 18.4546 24.6333C17.8297 27.6864 17.9056 30.8422 18.6764 33.8614C19.4473 36.8806 20.8928 39.6838 22.9032 42.0582C21.0087 42.4057 19.0532 42.1325 17.3251 41.2788C16.0505 40.6316 14.9494 39.6862 14.1147 38.5222C13.2799 37.3582 12.7359 36.0098 12.5285 34.5906C12.3212 33.1713 12.4565 31.7228 12.923 30.367C13.3896 29.0113 14.1738 27.788 15.2095 26.8003H15.207ZM16.6183 67.2597C16.8654 67.1952 17.2608 67.508 17.7378 68.5281C17.7378 68.7763 17.7378 69.0246 17.7378 69.2728C17.7724 71.0997 20.5405 70.0969 19.7397 68.1856C19.8389 64.9009 20.3259 61.6397 21.1905 58.4704C22.2335 54.618 22.6166 54.8662 22.9205 49.8274C22.9972 48.6111 24.4726 46.8736 25.0954 46.6478C25.3426 47.0474 25.5897 47.3924 25.7776 47.6853C28.4641 51.7188 25.8567 57.3658 25.8319 57.4974C25.7949 57.6724 25.8057 57.8543 25.8632 58.0238C25.9206 58.1932 26.0226 58.3439 26.1584 58.4599C26.2941 58.5758 26.4586 58.6528 26.6343 58.6826C26.81 58.7124 26.9905 58.694 27.1567 58.6292C31.378 56.9587 38.5403 49.9416 40.6386 49.115C41.4319 48.9338 42.3316 49.4601 41.9238 50.6341C41.516 51.8082 38.6911 54.0273 37.6951 54.7893C37.5918 54.8685 37.5051 54.9673 37.4399 55.0801C37.3747 55.193 37.3322 55.3176 37.315 55.4469C37.2978 55.5763 37.3061 55.7078 37.3395 55.8338C37.3729 55.9599 37.4308 56.0782 37.5097 56.1818C37.5885 56.2855 37.6869 56.3726 37.7993 56.4381C37.9117 56.5036 38.0358 56.5462 38.1645 56.5635C38.2933 56.5808 38.4242 56.5724 38.5497 56.5389C38.6753 56.5053 38.793 56.4472 38.8962 56.3679C39.2818 56.0726 40.2704 55.6804 42.6652 52.9947C42.9745 53.0312 43.2655 53.1611 43.4998 53.3671C43.7341 53.5732 43.9007 53.8458 43.9776 54.1489C44.2247 55.6382 43.3869 55.7126 39.2472 59.3093C39.097 59.4424 38.9905 59.6181 38.9419 59.8132C38.8934 60.0083 38.905 60.2137 38.9752 60.4021C39.0454 60.5904 39.1709 60.7529 39.3351 60.8681C39.4993 60.9832 39.6944 61.0456 39.8947 61.0468C40.389 61.0468 44.6399 57.3559 44.8105 57.192C46.9829 57.5644 44.5485 61.6302 44.1184 62.005C43.377 62.633 42.7468 63.4149 41.9262 64.0081C41.7137 64.1619 41.5706 64.3942 41.5284 64.6539C41.4862 64.9136 41.5484 65.1795 41.7013 65.3931C41.8545 65.6066 42.0858 65.7504 42.3443 65.7927C42.6029 65.8351 42.8677 65.7726 43.0804 65.619C43.4886 65.3156 43.8751 64.9838 44.2371 64.6262C44.9983 64.4698 46.2612 64.5616 46.2686 65.135C46.3156 68.821 39.734 73.3634 36.3555 74.7907C31.326 76.9154 27.0479 77.5682 23.2888 76.7764C22.053 76.5282 21.5192 78.3799 22.9724 78.792C23.531 78.9508 23.2838 80.0579 22.1717 80.1869C20.4416 80.3731 17.9998 78.3377 16.8728 75.5254C15.7878 72.8198 15.6593 68.8732 15.951 68.0119C15.9961 67.8453 16.0789 67.6915 16.193 67.5623C16.307 67.4332 16.4491 67.3322 16.6084 67.2672L16.6183 67.2597Z" fill="white"/>
<path d="M63.1637 16.0944L73.2968 7.97523C73.4002 7.89548 73.4869 7.79598 73.5518 7.68244C73.6168 7.56891 73.6588 7.44358 73.6753 7.31369C73.6918 7.1838 73.6826 7.05191 73.6482 6.92561C73.6138 6.79931 73.5548 6.68109 73.4747 6.57777C73.3111 6.37211 73.0729 6.2401 72.8125 6.21077C72.552 6.18145 72.2906 6.25721 72.0857 6.42139L61.9527 14.5431C61.7479 14.7074 61.6165 14.9466 61.5873 15.2082C61.5581 15.4698 61.6335 15.7323 61.797 15.938C61.9606 16.1437 62.1988 16.2757 62.4592 16.305C62.7197 16.3344 62.9811 16.2586 63.1859 16.0944H63.1637Z" fill="white"/>
<path d="M65.0395 23.3775C65.0746 23.5032 65.1341 23.6208 65.2144 23.7234C65.2948 23.826 65.3946 23.9118 65.508 23.9756C65.6214 24.0395 65.7462 24.0803 65.8753 24.0956C66.0045 24.111 66.1353 24.1005 66.2605 24.065L75.7262 21.3868C75.8512 21.3513 75.968 21.2914 76.0699 21.2105C76.1719 21.1297 76.2569 21.0295 76.3203 20.9156C76.3836 20.8017 76.424 20.6764 76.4391 20.5469C76.4542 20.4173 76.4438 20.286 76.4084 20.1605C76.337 19.9076 76.1686 19.6934 75.9402 19.565C75.7118 19.4366 75.442 19.4044 75.1899 19.4755L65.7242 22.1513C65.5989 22.1865 65.4819 22.2462 65.3797 22.3269C65.2775 22.4076 65.1922 22.5078 65.1286 22.6217C65.065 22.7356 65.0244 22.861 65.0091 22.9907C64.9938 23.1204 65.0042 23.2518 65.0395 23.3775Z" fill="white"/>
<path d="M67.9114 31.5312C67.6506 31.5564 67.4103 31.6845 67.2435 31.8874C67.0767 32.0903 66.9969 32.3515 67.0217 32.6135C67.0467 32.8754 67.1743 33.1167 67.3763 33.2842C67.5784 33.4518 67.8384 33.5319 68.0992 33.507C71.0098 33.2269 73.946 33.4002 76.8038 34.0209C77.0597 34.0762 77.3271 34.0273 77.5472 33.8849C77.7672 33.7425 77.9221 33.5182 77.9777 33.2613C78.0328 33.0039 77.9837 32.7351 77.8414 32.514C77.6992 32.2929 77.4753 32.1376 77.219 32.0823C74.1634 31.4171 71.0237 31.2313 67.9114 31.5312Z" fill="white"/>
</g>
</g>
<defs>
<clipPath id="clip0_360_28">
<rect width="78" height="86" fill="white"/>
</clipPath>
</defs>
</svg>
