<svg width="36" height="30" viewBox="0 0 36 30" fill="none" xmlns="http://www.w3.org/2000/svg">
<path d="M22.0305 29.9998H13.5765C13.0609 29.9998 12.6424 29.5814 12.6424 29.0658V21.8933C12.6424 21.3777 13.0609 20.9592 13.5765 20.9592C14.0921 20.9592 14.5105 21.3777 14.5105 21.8933V28.1317H21.0964V21.8933C21.0964 21.3777 21.5149 20.9592 22.0305 20.9592C22.5461 20.9592 22.9645 21.3777 22.9645 21.8933V29.0658C22.9645 29.5814 22.5461 29.9998 22.0305 29.9998Z" fill="#DD131A"/>
<path d="M13.952 16.1783C13.4364 16.1783 13.0179 15.7599 13.0179 15.2443C13.0179 14.8046 12.3447 14.1676 11.9829 13.8245L11.9095 13.7547C10.684 12.5952 9.98029 10.9637 9.98029 9.27864V8.18702C9.98029 6.62275 11.2008 5.31007 12.7582 5.19673C12.8323 5.19113 12.9158 5.18677 12.988 5.18677H16.238C16.7536 5.18677 17.172 5.60523 17.172 6.12084C17.172 6.63645 16.7536 7.05492 16.238 7.05492H12.988C12.9569 7.05492 12.9226 7.05803 12.8915 7.0599C12.3074 7.10224 11.8484 7.5973 11.8484 8.18702V9.27864C11.8484 10.4525 12.3391 11.5902 13.1947 12.3997L13.267 12.4688C13.8729 13.0423 14.886 14.0019 14.886 15.2449C14.886 15.7605 14.4676 16.179 13.952 16.179V16.1783Z" fill="#DD131A"/>
<path d="M21.2882 19.6667C20.7726 19.6667 20.3541 19.2482 20.3541 18.7326V16.4012C20.3541 16.1297 20.4718 15.8712 20.6779 15.6938C21.4078 15.0636 21.9813 14.2989 22.3829 13.4196C22.7852 12.5428 22.9888 11.6094 22.9888 10.6429V6.12011C22.9888 5.6045 23.4073 5.18604 23.9229 5.18604C24.4385 5.18604 24.857 5.6045 24.857 6.12011V10.6429C24.857 11.8796 24.5961 13.0759 24.0817 14.1967C23.629 15.1881 23.005 16.0674 22.2229 16.814V18.7326C22.2229 19.2482 21.8038 19.6667 21.2882 19.6667Z" fill="#DD131A"/>
<path d="M22.5374 9.0451C21.2571 9.0451 20.2159 8.0033 20.2159 6.72299V3.01534C20.2159 1.73503 21.2571 0.693848 22.5374 0.693848C23.8177 0.693848 24.8595 1.73503 24.8595 3.01534V6.72299C24.8595 8.0033 23.8177 9.0451 22.5374 9.0451ZM22.5374 2.56262C22.2877 2.56262 22.084 2.76563 22.084 3.01596V6.72361C22.084 6.97332 22.287 7.17757 22.5374 7.17757C22.7877 7.17757 22.9913 6.97394 22.9913 6.72361V3.01596C22.9913 2.76625 22.7877 2.56262 22.5374 2.56262Z" fill="#DD131A"/>
<path d="M19.7632 9.04496C18.4828 9.04496 17.441 8.00316 17.441 6.72285V2.32149C17.441 1.04118 18.4828 0 19.7632 0C21.0435 0 22.0846 1.04118 22.0846 2.32149V6.72285C22.0846 8.00316 21.0435 9.04496 19.7632 9.04496ZM19.7632 1.86877C19.5134 1.86877 19.3092 2.07178 19.3092 2.32211V6.72347C19.3092 6.97318 19.5128 7.17743 19.7632 7.17743C20.0135 7.17743 20.2165 6.9738 20.2165 6.72347V2.32211C20.2165 2.0724 20.0135 1.86877 19.7632 1.86877Z" fill="#DD131A"/>
<path d="M17.5351 8.93285C17.1727 8.93285 16.8277 8.72112 16.6757 8.3668C16.4727 7.89291 16.6919 7.34367 17.1664 7.14004C17.3333 7.06906 17.4404 6.90466 17.4404 6.72282V2.32333C17.4404 2.073 17.2368 1.86937 16.9865 1.86937C16.8308 1.86937 16.7268 1.94098 16.6664 2.00076C16.6209 2.04747 16.5356 2.15831 16.5356 2.32395V6.12003C16.5356 6.63564 16.1172 7.05411 15.6016 7.05411C15.0859 7.05411 14.6675 6.63564 14.6675 6.12003V2.32395C14.6675 1.70746 14.9066 1.12522 15.3406 0.684964C15.7828 0.242212 16.3656 0.0012207 16.9865 0.0012207C18.2668 0.0012207 19.3086 1.04303 19.3086 2.32333V6.72282C19.3086 7.65316 18.7562 8.49072 17.9019 8.8575C17.7823 8.90856 17.6578 8.93285 17.5351 8.93285Z" fill="#DD131A"/>
<path d="M16.2373 9.82695H14.5143C13.9987 9.82695 13.5802 9.40848 13.5802 8.89287C13.5802 8.37726 13.9987 7.9588 14.5143 7.9588H16.2373C16.487 7.9588 16.6913 7.75579 16.6913 7.50546C16.6913 7.25513 16.4877 7.0515 16.2373 7.0515C15.7217 7.0515 15.3033 6.63303 15.3033 6.11742C15.3033 5.60182 15.7217 5.18335 16.2373 5.18335C17.5176 5.18335 18.5594 6.22515 18.5594 7.50546C18.5594 8.78577 17.5176 9.82695 16.2373 9.82695Z" fill="#DD131A"/>
<path d="M12.8267 7.06048C12.3111 7.06048 11.8927 6.64201 11.8927 6.1264V3.01344C11.8927 2.39571 12.1349 1.81284 12.5745 1.37321C13.0198 0.934191 13.6002 0.695068 14.2148 0.695068C15.4957 0.695068 16.5369 1.73501 16.5369 3.01344V6.11893C16.5369 6.63454 16.1184 7.05301 15.6028 7.05301C15.0872 7.05301 14.6687 6.63454 14.6687 6.11893V3.01344C14.6687 2.7656 14.4651 2.56322 14.2148 2.56322C14.0523 2.56322 13.942 2.64853 13.8903 2.69897C13.8455 2.74443 13.7608 2.85278 13.7608 3.01344V6.1264C13.7608 6.64201 13.3424 7.06048 12.8267 7.06048Z" fill="#DD131A"/>
<path d="M18.2163 13.1822C17.7007 13.1822 17.2823 12.7637 17.2823 12.2481C17.2823 10.3937 15.4733 9.85192 15.2671 9.7965C14.7715 9.66262 14.4738 9.15324 14.604 8.65631C14.7353 8.16 15.2379 7.85985 15.7361 7.98813C16.9167 8.29015 19.1504 9.56921 19.1504 12.2481C19.1504 12.7637 18.7319 13.1822 18.2163 13.1822Z" fill="#DD131A"/>
<path d="M23.1227 17.8003H12.1722C11.6564 17.8003 11.2382 18.2185 11.2382 18.7344V21.8934C11.2382 22.4093 11.6564 22.8275 12.1722 22.8275H23.1227C23.6386 22.8275 24.0568 22.4093 24.0568 21.8934V18.7344C24.0568 18.2185 23.6386 17.8003 23.1227 17.8003Z" fill="#DD131A"/>
<path d="M4.30296 21.2478C1.96092 21.2478 0.0560303 19.3422 0.0560303 17.0008V15.459C0.0560303 14.9434 0.474496 14.5249 0.990105 14.5249H7.61706C8.13267 14.5249 8.55113 14.9434 8.55113 15.459V17.0008C8.55113 19.3429 6.64562 21.2478 4.30358 21.2478H4.30296ZM1.92418 16.3931V17.0008C1.92418 18.3123 2.99152 19.3796 4.30296 19.3796C5.6144 19.3796 6.68236 18.3123 6.68236 17.0008V16.3931H1.92418Z" fill="#DD131A"/>
<path d="M6.65495 16.3952H1.95157C1.66263 16.3952 1.38988 16.2613 1.21241 16.0328C1.03493 15.8043 0.974529 15.506 1.04676 15.2264L3.39814 6.16586C3.50525 5.75425 3.87701 5.46655 4.30233 5.46655C4.72764 5.46655 5.0994 5.75425 5.20651 6.16586L7.55789 15.2264C7.63013 15.506 7.56972 15.8043 7.39225 16.0328C7.21477 16.2613 6.94202 16.3952 6.65308 16.3952H6.65495ZM3.15964 14.5271H5.4475L4.30357 10.1189L3.15964 14.5271Z" fill="#DD131A"/>
<path d="M8.73298 7.3347H7.67187C7.15626 7.3347 6.73779 6.91624 6.73779 6.40063C6.73779 5.05805 5.64555 3.96581 4.30297 3.96581C2.9604 3.96581 1.86815 5.05805 1.86815 6.40063C1.86815 6.91624 1.44968 7.3347 0.934075 7.3347C0.418466 7.3347 0 6.91624 0 6.40063C0 4.02746 1.93042 2.09766 4.30297 2.09766C6.35482 2.09766 8.07664 3.54111 8.50382 5.46655H8.73298C9.24859 5.46655 9.66705 5.88502 9.66705 6.40063C9.66705 6.91624 9.24859 7.3347 8.73298 7.3347Z" fill="#DD131A"/>
<path d="M31.2479 21.2478C28.9053 21.2478 27.0004 19.3422 27.0004 17.0008V15.459C27.0004 14.9434 27.4188 14.5249 27.9344 14.5249H34.5614C35.077 14.5249 35.4955 14.9434 35.4955 15.459V17.0008C35.4955 19.3429 33.59 21.2478 31.2485 21.2478H31.2479ZM28.8685 16.3931V17.0008C28.8685 18.3123 29.9359 19.3796 31.2479 19.3796C32.56 19.3796 33.6267 18.3123 33.6267 17.0008V16.3931H28.8685Z" fill="#DD131A"/>
<path d="M33.5993 16.3952H28.8959C28.607 16.3952 28.3342 16.2613 28.1568 16.0328C27.9793 15.8043 27.9189 15.506 27.9911 15.2264L30.3425 6.16586C30.4496 5.75425 30.8214 5.46655 31.2467 5.46655C31.672 5.46655 32.0438 5.75425 32.1509 6.16586L34.5023 15.2264C34.5745 15.506 34.5141 15.8043 34.3366 16.0328C34.1591 16.2613 33.8864 16.3952 33.5975 16.3952H33.5993ZM30.104 14.5271H32.3919L31.2479 10.1189L30.104 14.5271Z" fill="#DD131A"/>
<path d="M34.6168 7.3347C34.1012 7.3347 33.6828 6.91624 33.6828 6.40063C33.6828 5.05805 32.5905 3.96581 31.2479 3.96581C29.9054 3.96581 28.8131 5.05805 28.8131 6.40063C28.8131 6.91624 28.3946 7.3347 27.879 7.3347H26.8179C26.3023 7.3347 25.8839 6.91624 25.8839 6.40063C25.8839 5.88502 26.3023 5.46655 26.8179 5.46655H27.0471C27.4749 3.54111 29.1961 2.09766 31.2479 2.09766C33.6211 2.09766 35.5509 4.02808 35.5509 6.40063C35.5509 6.91624 35.1324 7.3347 34.6168 7.3347Z" fill="#DD131A"/>
</svg>
