<svg width="87" height="86" viewBox="0 0 87 86" fill="none" xmlns="http://www.w3.org/2000/svg">
<path fill-rule="evenodd" clip-rule="evenodd" d="M23.6708 8.6H8.62077C8.12964 8.58569 7.64842 8.74004 7.25723 9.03734C6.86604 9.33464 6.58849 9.75697 6.47077 10.234L0.0207738 36.034C-0.0069246 36.2049 -0.0069246 36.3791 0.0207738 36.55V47.3C0.0207738 47.8702 0.247291 48.4171 0.650495 48.8203C1.0537 49.2235 1.60056 49.45 2.17077 49.45H6.47077V79.55C6.47077 81.2607 7.15032 82.9012 8.35993 84.1108C9.56954 85.3204 11.2101 86 12.9208 86H73.1208C74.8314 86 76.472 85.3204 77.6816 84.1108C78.8912 82.9012 79.5708 81.2607 79.5708 79.55V49.45H83.8708C84.441 49.45 84.9878 49.2235 85.3911 48.8203C85.7943 48.4171 86.0208 47.8702 86.0208 47.3V36.55C86.0533 36.3651 86.0533 36.1759 86.0208 35.991L79.5708 10.191C79.4448 9.72195 79.1637 9.30938 78.7733 9.02048C78.3829 8.73158 77.9062 8.58337 77.4208 8.6H62.3708V6.45C62.3708 4.73935 61.6912 3.09877 60.4816 1.88916C59.272 0.679552 57.6314 0 55.9208 0H30.1208C28.4101 0 26.7695 0.679552 25.5599 1.88916C24.3503 3.09877 23.6708 4.73935 23.6708 6.45V8.6ZM75.2708 49.45H10.7708V79.55C10.7708 80.1202 10.9973 80.6671 11.4005 81.0703C11.8037 81.4735 12.3506 81.7 12.9208 81.7H73.1208C73.691 81.7 74.2378 81.4735 74.6411 81.0703C75.0443 80.6671 75.2708 80.1202 75.2708 79.55V49.45ZM43.0208 55.9C41.5884 54.6183 39.7433 53.8937 37.8215 53.8582C35.8997 53.8227 34.0291 54.4786 32.5503 55.7065C29.6908 58.2435 29.2393 63.296 32.0773 68.37C33.8188 71.6595 38.2263 75.0135 41.9243 77.2065C42.2511 77.3952 42.6219 77.4946 42.9993 77.4946C43.3767 77.4946 43.7474 77.3952 44.0743 77.2065C47.7723 75.0565 52.1798 71.6595 53.9213 68.37C56.7593 63.296 56.3078 58.2435 53.4483 55.7065C51.9726 54.4902 50.1108 53.8412 48.1988 53.8767C46.2867 53.9122 44.4503 54.6298 43.0208 55.9ZM41.1503 60.2C41.3378 60.5309 41.6097 60.8061 41.9383 60.9976C42.2669 61.1891 42.6404 61.2899 43.0208 61.2899C43.4011 61.2899 43.7746 61.1891 44.1032 60.9976C44.4318 60.8061 44.7038 60.5309 44.8913 60.2C45.1272 59.6801 45.477 59.22 45.9149 58.8536C46.3528 58.4873 46.8674 58.2242 47.4208 58.0838C47.9742 57.9434 48.552 57.9293 49.1116 58.0425C49.6711 58.1558 50.198 58.3935 50.6533 58.738C51.0034 59.0954 51.2714 59.5249 51.4385 59.9964C51.6056 60.468 51.6678 60.9704 51.6208 61.4685C51.5545 63.1329 51.0662 64.7532 50.2018 66.177C48.3485 68.8538 45.8973 71.0621 43.0423 72.627C40.1873 71.0621 37.736 68.8538 35.8828 66.177C35.0032 64.7573 34.5 63.1367 34.4208 61.4685C34.3864 60.9844 34.4548 60.4985 34.6215 60.0427C34.7883 59.5869 35.0496 59.1716 35.3883 58.824C35.8435 58.4795 36.3704 58.2418 36.93 58.1285C37.4895 58.0153 38.0674 58.0294 38.6207 58.1698C39.1741 58.3102 39.6888 58.5733 40.1267 58.9396C40.5645 59.306 40.9144 59.7661 41.1503 60.286V60.2ZM81.7208 45.15H4.32077V38.7H81.7208V45.15ZM62.3708 25.8H64.5208C65.091 25.8 65.6378 26.0265 66.0411 26.4297C66.4443 26.8329 66.6708 27.3798 66.6708 27.95C66.6708 28.5202 66.4443 29.0671 66.0411 29.4703C65.6378 29.8735 65.091 30.1 64.5208 30.1H21.5208C20.9506 30.1 20.4037 29.8735 20.0005 29.4703C19.5973 29.0671 19.3708 28.5202 19.3708 27.95C19.3708 27.3798 19.5973 26.8329 20.0005 26.4297C20.4037 26.0265 20.9506 25.8 21.5208 25.8H23.6708V12.9H10.2978L4.92277 34.4H81.1188L75.7438 12.9H62.3708V25.8ZM47.3208 4.3H38.7208C38.7208 7.15108 37.5882 9.88538 35.5722 11.9014C33.5562 13.9174 30.8218 15.05 27.9708 15.05V25.8H32.4858C32.9792 23.3699 34.2976 21.1851 36.2176 19.6158C38.1376 18.0465 40.5411 17.1892 43.0208 17.1892C45.5005 17.1892 47.904 18.0465 49.8239 19.6158C51.7439 21.1851 53.0623 23.3699 53.5558 25.8H58.0708V15.05C55.2197 15.05 52.4854 13.9174 50.4694 11.9014C48.4534 9.88538 47.3208 7.15108 47.3208 4.3ZM49.1053 25.8C48.6621 24.5401 47.8387 23.4489 46.7488 22.6769C45.659 21.905 44.3563 21.4904 43.0208 21.4904C41.6852 21.4904 40.3826 21.905 39.2927 22.6769C38.2028 23.4489 37.3795 24.5401 36.9363 25.8H49.1053ZM34.4208 4.3H30.1208C29.5506 4.3 29.0037 4.52652 28.6005 4.92972C28.1973 5.33292 27.9708 5.87978 27.9708 6.45V10.75C29.6814 10.75 31.322 10.0704 32.5316 8.86084C33.7412 7.65123 34.4208 6.01065 34.4208 4.3ZM51.6208 4.3C51.6208 6.01065 52.3003 7.65123 53.5099 8.86084C54.7195 10.0704 56.3601 10.75 58.0708 10.75V6.45C58.0708 5.87978 57.8443 5.33292 57.4411 4.92972C57.0378 4.52652 56.491 4.3 55.9208 4.3H51.6208Z" fill="white"/>
</svg>
