<svg width="31" height="30" viewBox="0 0 31 30" fill="none" xmlns="http://www.w3.org/2000/svg">
<path fill-rule="evenodd" clip-rule="evenodd" d="M12.3589 23.1705L3.50956 29.5797C2.83642 30.067 1.94669 30.136 1.2064 29.7583C0.466101 29.3803 0 28.6193 0 27.788V16.1415C0 15.4323 0.340286 14.7661 0.914684 14.3501L6.70353 10.1573C6.65946 9.71805 6.63584 9.28115 6.63584 8.84796C6.63584 3.96478 10.6004 0 15.4838 0C20.367 0 24.3315 3.96478 24.3315 8.84796C24.3315 9.02368 24.3275 9.20019 24.3201 9.37697L27.458 7.10433C28.1312 6.61673 29.0206 6.54772 29.7612 6.92569C30.5015 7.30367 30.9673 8.06467 30.9673 8.89601V20.5424C30.9673 21.2517 30.6273 21.9179 30.0529 22.3338L23.4171 27.1398C22.6428 27.7006 21.5962 27.7006 20.8222 27.1398L17.4777 24.7177C17.3856 24.839 17.2972 24.9531 17.2136 25.0604C17.2115 25.0633 17.2094 25.066 17.2073 25.0686C16.7895 25.5939 16.1551 25.9002 15.4841 25.9005C14.8131 25.901 14.1784 25.5955 13.7598 25.071C13.7574 25.0678 13.755 25.0646 13.7526 25.0617C13.3691 24.5701 12.8884 23.9288 12.3589 23.1705ZM7.1391 12.5731L2.21212 16.1415V27.788L11.1341 21.3263C9.58773 18.8734 7.9439 15.7461 7.1391 12.5731ZM23.8604 12.4411C22.8849 16.398 20.5836 20.3017 18.7754 22.9263L22.1196 25.3484L28.7555 20.5424V8.89574L23.8604 12.4411ZM15.4822 23.6838C17.4207 21.1957 22.1196 14.6546 22.1196 8.84796C22.1196 5.18551 19.1463 2.21212 15.4838 2.21212C11.8213 2.21212 8.84796 5.18551 8.84796 8.84796C8.84796 14.6623 13.5448 21.1967 15.4822 23.6838ZM15.4838 4.47521C17.8971 4.47521 19.8563 6.43464 19.8563 8.84796C19.8563 11.2613 17.8971 13.2205 15.4838 13.2205C13.0705 13.2205 11.111 11.2613 11.111 8.84796C11.111 6.43464 13.0705 4.47521 15.4838 4.47521ZM15.4838 6.68733C14.2912 6.68733 13.3229 7.65537 13.3229 8.84796C13.3229 10.0406 14.2912 11.0086 15.4838 11.0086C16.6761 11.0086 17.6444 10.0406 17.6444 8.84796C17.6444 7.65537 16.6761 6.68733 15.4838 6.68733Z" fill="#DD131A"/>
</svg>
