<svg width="31" height="30" viewBox="0 0 31 30" fill="none" xmlns="http://www.w3.org/2000/svg">
<path fill-rule="evenodd" clip-rule="evenodd" d="M18.478 0C19.1695 0 19.73 0.560535 19.73 1.25196V3.75589C19.73 4.44732 19.1695 5.00785 18.478 5.00785C17.7866 5.00785 17.2261 4.44732 17.2261 3.75589V1.25196C17.2261 0.560535 17.7866 0 18.478 0ZM21.2949 11.5807V14.3976H15.6611V11.5807C15.6611 10.0249 16.9223 8.76374 18.478 8.76374C20.0337 8.76374 21.2949 10.0249 21.2949 11.5807ZM13.1572 14.5796V11.5807C13.1572 8.64205 15.5394 6.25981 18.478 6.25981C21.4166 6.25981 23.7989 8.64205 23.7989 11.5807V14.5796C24.7165 14.951 25.3638 15.8507 25.3638 16.9015V17.8405C25.3638 19.2234 24.2428 20.3444 22.8599 20.3444H14.0962C12.7133 20.3444 11.5922 19.2234 11.5922 17.8405V16.9015C11.5922 15.8507 12.2395 14.951 13.1572 14.5796ZM15.3133 16.9015H14.0962V17.8405H22.8599V16.9015H21.6427H15.3133ZM26.6158 7.51178C25.9244 7.51178 25.3638 8.07231 25.3638 8.76374C25.3638 9.45517 25.9244 10.0157 26.6158 10.0157H28.8067C29.4981 10.0157 30.0587 9.45517 30.0587 8.76374C30.0587 8.07231 29.4981 7.51178 28.8067 7.51178H26.6158ZM6.89737 9.07673C6.89737 8.3853 7.45787 7.82477 8.14933 7.82477H10.6533C11.3447 7.82477 11.9052 8.3853 11.9052 9.07673C11.9052 9.76816 11.3447 10.3287 10.6533 10.3287H8.14933C7.45787 10.3287 6.89737 9.76816 6.89737 9.07673ZM12.43 2.66668C11.9411 2.17776 11.1484 2.17776 10.6595 2.66668C10.1706 3.1556 10.1706 3.94828 10.6595 4.43721L12.3194 6.09709C12.8083 6.58601 13.601 6.58601 14.0899 6.09709C14.5789 5.60817 14.5789 4.81549 14.0899 4.32656L12.43 2.66668ZM26.0618 2.66668C25.5729 2.17776 24.7802 2.17776 24.2913 2.66668L22.6314 4.32656C22.1425 4.81549 22.1425 5.60817 22.6314 6.09709C23.1203 6.58601 23.913 6.58601 24.4019 6.09709L26.0618 4.43721C26.5507 3.94828 26.5507 3.1556 26.0618 2.66668ZM9.11265 27.8709C11.9514 30.7097 16.5539 30.7097 19.3926 27.8709C20.3516 26.912 20.3516 25.3574 19.3926 24.3985L17.7184 22.7243C16.4476 21.4534 14.474 21.3136 13.0485 22.3049L7.69509 16.9515C8.68636 15.526 8.54655 13.5524 7.27571 12.2815L5.60149 10.6073C4.64258 9.64844 3.08793 9.64844 2.12905 10.6073C-0.709683 13.4461 -0.709683 18.0486 2.12905 20.8873L9.11265 27.8709ZM15.9479 24.4948L17.5876 26.1345C15.7241 27.9613 12.7326 27.9498 10.8832 26.1004L3.89961 19.1168C2.05014 17.2673 2.03875 14.2759 3.86543 12.4124L5.50515 14.0521C5.95523 14.5022 5.95523 15.2319 5.50515 15.682C4.78149 16.4057 4.78149 17.579 5.50515 18.3026L11.6974 24.4948C12.421 25.2185 13.5943 25.2185 14.318 24.4948C14.7681 24.0447 15.4978 24.0447 15.9479 24.4948Z" fill="#DD131A"/>
</svg>
