<svg width="27" height="30" viewBox="0 0 27 30" fill="none" xmlns="http://www.w3.org/2000/svg">
<path d="M17.247 30C19.7656 30 21.8118 27.9902 21.8967 25.4912C24.3956 25.4064 26.4059 23.3597 26.4059 20.8405V4.66605C26.4059 2.09316 24.3127 0 21.7399 0H9.15894C6.64045 0 4.59438 2.01011 4.5093 4.50871C2.01037 4.59353 0 6.63973 0 9.15894V25.3345C0 27.9074 2.09316 30 4.66605 30H17.247ZM9.15894 2.14286H21.7399C23.1309 2.14286 24.263 3.27497 24.263 4.66605V20.8405C24.263 22.173 23.2218 23.2562 21.9125 23.3468V9.15894C21.9125 6.58604 19.8193 4.49288 17.247 4.49288H6.65379C6.74469 3.18375 7.82717 2.14286 9.15894 2.14286ZM2.14286 9.15894C2.14286 7.76786 3.27497 6.63574 4.66605 6.63574H17.247C18.638 6.63574 19.7696 7.76786 19.7696 9.15894V25.3345C19.7696 26.725 18.638 27.8571 17.247 27.8571H4.66605C3.27497 27.8571 2.14286 26.725 2.14286 25.3345V9.15894Z" fill="#DD131A"/>
<path d="M5.56484 18.3179H16.3482C16.9399 18.3179 17.4196 17.8387 17.4196 17.2465C17.4196 16.6543 16.9399 16.175 16.3482 16.175H5.56484C4.97314 16.175 4.49341 16.6543 4.49341 17.2465C4.49341 17.8387 4.97314 18.3179 5.56484 18.3179Z" fill="#DD131A"/>
<path d="M5.56484 13.825H16.3482C16.9399 13.825 17.4196 13.3452 17.4196 12.7536C17.4196 12.1619 16.9399 11.6821 16.3482 11.6821H5.56484C4.97314 11.6821 4.49341 12.1619 4.49341 12.7536C4.49341 13.3452 4.97314 13.825 5.56484 13.825Z" fill="#DD131A"/>
<path d="M5.56484 22.8108H16.3482C16.9399 22.8108 17.4196 22.3316 17.4196 21.7394C17.4196 21.1472 16.9399 20.668 16.3482 20.668H5.56484C4.97314 20.668 4.49341 21.1472 4.49341 21.7394C4.49341 22.3316 4.97314 22.8108 5.56484 22.8108Z" fill="#DD131A"/>
</svg>
